<svg width="10" height="12" viewBox="0 0 10 12" fill="none" xmlns="http://www.w3.org/2000/svg">
<path d="M5 12C5 12 9.5 7.7355 9.5 4.5C9.5 3.30653 9.02589 2.16193 8.18198 1.31802C7.33807 0.474106 6.19347 0 5 0C3.80653 0 2.66193 0.474106 1.81802 1.31802C0.974106 2.16193 0.5 3.30653 0.5 4.5C0.5 7.7355 5 12 5 12ZM5 6.75C4.40326 6.75 3.83097 6.51295 3.40901 6.09099C2.98705 5.66903 2.75 5.09674 2.75 4.5C2.75 3.90326 2.98705 3.33097 3.40901 2.90901C3.83097 2.48705 4.40326 2.25 5 2.25C5.59674 2.25 6.16903 2.48705 6.59099 2.90901C7.01295 3.33097 7.25 3.90326 7.25 4.5C7.25 5.09674 7.01295 5.66903 6.59099 6.09099C6.16903 6.51295 5.59674 6.75 5 6.75Z" fill="#6F7C97"/>
</svg>
