<svg width="9" height="11" viewBox="0 0 9 11" fill="none" xmlns="http://www.w3.org/2000/svg">
  <path
    d="M1.3 10.1C1.3 10.1 0.5 10.1 0.5 9.3C0.5 8.5 1.3 6.1 4.5 6.1C7.7 6.1 8.5 8.5 8.5 9.3C8.5 10.1 7.7 10.1 7.7 10.1H1.3ZM4.5 5.3C5.13652 5.3 5.74697 5.04714 6.19706 4.59706C6.64714 4.14697 6.9 3.53652 6.9 2.9C6.9 2.26348 6.64714 1.65303 6.19706 1.20294C5.74697 0.752856 5.13652 0.5 4.5 0.5C3.86348 0.5 3.25303 0.752856 2.80294 1.20294C2.35286 1.65303 2.1 2.26348 2.1 2.9C2.1 3.53652 2.35286 4.14697 2.80294 4.59706C3.25303 5.04714 3.86348 5.3 4.5 5.3Z"
    fill="#6F7C97"
  />
</svg>